<?xml version="1.0" encoding="UTF-8" standalone="no"?>
<svg
   xmlns:dc="http://purl.org/dc/elements/1.1/"
   xmlns:cc="http://creativecommons.org/ns#"
   xmlns:rdf="http://www.w3.org/1999/02/22-rdf-syntax-ns#"
   xmlns:svg="http://www.w3.org/2000/svg"
   xmlns="http://www.w3.org/2000/svg"
   xmlns:sodipodi="http://sodipodi.sourceforge.net/DTD/sodipodi-0.dtd"
   xmlns:inkscape="http://www.inkscape.org/namespaces/inkscape"
   width="16"
   height="16"
   version="1.1"
   viewBox="0 0 16 16"
   id="svg20"
   sodipodi:docname="icon_visual_shader_ext.svg"
   inkscape:version="0.92.4 (5da689c313, 2019-01-14)"
   inkscape:export-filename="/run/media/j-o/Daten-Intern/Datein/Godot/Shader/Visual Shader Extension/icon.png"
   inkscape:export-xdpi="768"
   inkscape:export-ydpi="768">
  <metadata
     id="metadata26">
    <rdf:RDF>
      <cc:Work
         rdf:about="">
        <dc:format>image/svg+xml</dc:format>
        <dc:type
           rdf:resource="http://purl.org/dc/dcmitype/StillImage" />
        <dc:title />
      </cc:Work>
    </rdf:RDF>
  </metadata>
  <defs
     id="defs24" />
  <sodipodi:namedview
     pagecolor="#ffffff"
     bordercolor="#666666"
     borderopacity="1"
     objecttolerance="10"
     gridtolerance="10"
     guidetolerance="10"
     inkscape:pageopacity="0"
     inkscape:pageshadow="2"
     inkscape:window-width="958"
     inkscape:window-height="1138"
     id="namedview22"
     showgrid="false"
     inkscape:zoom="29.5"
     inkscape:cx="6.1928232"
     inkscape:cy="8.1031212"
     inkscape:window-x="1977"
     inkscape:window-y="30"
     inkscape:window-maximized="0"
     inkscape:current-layer="g18"
     showguides="false" />
  <path
     inkscape:connector-curvature="0"
     style="color:#000000;clip-rule:nonzero;display:inline;overflow:visible;visibility:visible;opacity:1;isolation:auto;mix-blend-mode:normal;color-interpolation:sRGB;color-interpolation-filters:linearRGB;solid-color:#000000;solid-opacity:1;fill:#355570;fill-opacity:1;fill-rule:nonzero;stroke:#2a445a;stroke-width:0.49999198;stroke-linecap:round;stroke-linejoin:round;stroke-miterlimit:4;stroke-dasharray:none;stroke-dashoffset:0;stroke-opacity:1;color-rendering:auto;image-rendering:auto;shape-rendering:auto;text-rendering:auto;enable-background:accumulate"
     d="M 5.9709647,0.29607306 H 0.30346587 V 5.996972 c 0,3.4269413 0,-0.5531119 0,4.215229 v 5.515757 H 5.9709647 C 5.7370351,15.387118 5.5887088,14.994913 5.5385529,14.584575 5.3765286,13.233346 6.2951425,11.989773 7.6343026,11.747454 8.9734861,11.505125 10.269651,12.34797 10.591381,13.670325 l 0.07285,0.60802 c -4.7e-5,0.517217 -0.15603,1.022403 -0.447587,1.449613 h 5.518711 v -5.515757 c -0.388132,0.272023 -0.84388,0.431509 -1.316935,0.460849 -1.358503,0.08115 -2.545098,-0.9099898 -2.707114,-2.2612352 -0.162018,-1.3512276 0.756602,-2.5947952 2.095763,-2.8371085 0.673343,-0.1213219 1.367274,0.030638 1.928288,0.4222652 V 0.29607267 h -5.518713 c -5.390956,0 1.279014,3.9e-7 -4.2456783,3.9e-7 z"
     id="path2502"
     sodipodi:nodetypes="cccccccccccccccccccc" />
  <g
     id="g18"
     transform="matrix(0.61505806,0,0,0.35410962,1.0669099,1.1196004)">
    <path
       d="M 1.6770935,1 C 1.3031618,1.0001 1.0000406,1.4477 1,2 v 12 c 3.74e-5,0.5523 0.3031618,0.9999 0.6770935,1 h 8.1251216 c 0.3739319,-10e-5 0.6770529,-0.4477 0.6770939,-1 V 6 L 7.0938412,1 Z m 0.6770934,2 h 4.0625609 v 3 c 0,0.554 0.3019769,1 0.6770934,1 h 2.0312805 v 6 H 2.3541869 Z"
       id="path2"
       inkscape:connector-curvature="0"
       style="fill:#ffffff;fill-opacity:1;stroke-width:0.8228569" />
    <path
       d="m 7.0938412,11 h 1.354187 v 1 h -1.354187 z"
       id="path4"
       inkscape:connector-curvature="0"
       style="fill:#9f70ff;fill-opacity:1;stroke-width:0.8228569" />
    <path
       d="m 3.0312804,6 h 1.354187 v 1 h -1.354187 z"
       id="path6"
       inkscape:connector-curvature="0"
       style="fill:#ffeb70;fill-opacity:1;stroke-width:0.8228569" />
    <path
       d="M 5.7396543,8 H 8.4480282 V 9 H 5.7396543 Z"
       id="path8"
       inkscape:connector-curvature="0"
       style="fill:#9dff70;fill-opacity:1;stroke-width:0.8228569" />
    <path
       d="M 5.0625608,6 H 5.7396543 V 7 H 5.0625608 Z"
       id="path10"
       inkscape:connector-curvature="0"
       style="fill:#70deff;fill-opacity:1;stroke-width:0.8228569" />
    <path
       d="m 3.0312804,11 h 3.3854674 v 1 H 3.0312804 Z"
       id="path12"
       inkscape:connector-curvature="0"
       style="fill:#ff70ac;fill-opacity:1;stroke-width:0.8228569" />
    <path
       d="M 3.0312804,4 H 5.0625608 V 5 H 3.0312804 Z"
       id="path14"
       inkscape:connector-curvature="0"
       style="fill:#ff7070;fill-opacity:1;stroke-width:0.8228569" />
    <path
       d="M 3.0312804,8 H 5.0625608 V 9 H 3.0312804 Z"
       id="path16"
       inkscape:connector-curvature="0"
       style="fill:#70ffb9;fill-opacity:1;stroke-width:0.8228569" />
  </g>
  <path
     inkscape:connector-curvature="0"
     style="fill:#ffffff;fill-opacity:1;stroke:none;stroke-width:0.60058904"
     d="m 1.6000003,7.2454025 v 3.6035335 h 1.201178 A 1.8017669,1.8017669 0 0 0 4.6029451,9.0471692 V 7.2454025 H 3.4017673 V 9.0471692 A 0.60058897,0.60058897 0 0 1 2.8011783,9.647758 V 7.2454025 Z"
     id="path1394" />
  <path
     inkscape:connector-curvature="0"
     style="fill:#ffffff;fill-opacity:1;stroke:none;stroke-width:0.60058904"
     d="m 6.4047121,7.2454025 a 1.201178,1.201178 0 0 0 -1.0404604,0.6005887 1.201178,1.201178 0 0 0 0,1.201178 1.201178,1.201178 0 0 0 1.0404604,0.6005888 h -1.201178 v 1.201178 h 1.201178 a 1.201178,1.201178 0 0 0 1.0404596,-0.600589 1.201178,1.201178 0 0 0 0,-1.2011778 1.201178,1.201178 0 0 0 -1.0404596,-0.600589 H 7.6058895 V 7.2454025 Z"
     id="path30" />
</svg>
